<!-- Document/Report Icon -->
<svg width="42" height="42" viewBox="0 0 42 42" fill="none" xmlns="http://www.w3.org/2000/svg">
  <path opacity="0.15" d="M14.375 2.625a1.25 1.25 0 0 0-1.213 1.553l.238.947H8.75A1.25 1.25 0 0 0 7.5 6.375v30A1.25 1.25 0 0 0 8.75 37.625h22.5a1.25 1.25 0 0 0 1.25-1.25v-30a1.25 1.25 0 0 0-1.25-1.25h-4.025l.238-.947a1.25 1.25 0 0 0-1.213-1.553z" fill="url(#paint0_linear)"/>
  <path d="M14.375 2.625a1.25 1.25 0 0 0-1.213 1.553l.238.947H8.75A1.25 1.25 0 0 0 7.5 6.375v30A1.25 1.25 0 0 0 8.75 37.625h22.5a1.25 1.25 0 0 0 1.25-1.25v-30a1.25 1.25 0 0 0-1.25-1.25h-4.025l.238-.947a1.25 1.25 0 0 0-1.213-1.553zM15.975 5.125h9.3l-.625 2.5h-8.05zM21.25 16.25v1.25h-8.75v2.5h8.75v1.25h2.5v-1.25h8.75v-2.5h-8.75v-1.25zM16.25 23.75v1.25h-3.75v2.5h3.75v1.25h2.5v-1.25h8.75v-2.5h-8.75v-1.25z" stroke="url(#paint1_linear)" stroke-width="2"/>
  <defs>
    <linearGradient id="paint0_linear" x1="7.5" y1="2.625" x2="32.5" y2="37.625" gradientUnits="userSpaceOnUse">
      <stop offset="0.259336" stop-color="#FFDB6E"/>
      <stop offset="1" stop-color="#FFBC5E"/>
    </linearGradient>
    <linearGradient id="paint1_linear" x1="7.5" y1="2.625" x2="32.5" y2="37.625" gradientUnits="userSpaceOnUse">
      <stop offset="0.259336" stop-color="#FFDB6E"/>
      <stop offset="1" stop-color="#FFBC5E"/>
    </linearGradient>
  </defs>
</svg>