<svg width="42" height="42" viewBox="0 0 42 42" fill="none" xmlns="http://www.w3.org/2000/svg">
  <path opacity="0.15" d="M34.5 30a3.744 3.744 0 0 0-3.52 2.5h-3.208l-1.947-3.895C28.019 26.865 30 23.668 30 20s-1.981-6.865-4.925-8.605L26.523 7.5h3.207A3.744 3.744 0 0 0 34.5 10c2.067 0 3.75-1.683 3.75-3.75S36.567 2.5 34.5 2.5a3.744 3.744 0 0 0-3.52 2.5h-3.208a2.488 2.488 0 0 0-2.236 1.383l-2.009 4.016C22.645 10.144 21.715 10 20.75 10s-1.895.144-2.778.4l-2.008-4.017A2.488 2.488 0 0 0 13.728 5h-3.208A3.744 3.744 0 0 0 7 2.5C4.933 2.5 3.25 4.183 3.25 6.25S4.933 10 7 10a3.744 3.744 0 0 0 3.52-2.5h3.208l1.947 3.895C12.73 13.135 10.75 16.332 10.75 20s1.98 6.865 4.925 8.605L13.227 32.5h-3.207A3.744 3.744 0 0 0 7 30c-2.067 0-3.75 1.683-3.75 3.75S4.933 37.5 7 37.5a3.744 3.744 0 0 0 3.52-2.5h3.208a2.488 2.488 0 0 0 2.236-1.383l2.009-4.016c.882.255 1.812.399 2.777.399s1.895-.144 2.778-.4l2.008 4.017a2.488 2.488 0 0 0 2.236 1.383h3.208a3.744 3.744 0 0 0 3.52 2.5c2.067 0 3.75-1.683 3.75-3.75S36.567 30 34.5 30z" fill="url(#paint0_linear)"/>
  <path d="M34.5 30a3.744 3.744 0 0 0-3.52 2.5h-3.208l-1.947-3.895C28.019 26.865 30 23.668 30 20s-1.981-6.865-4.925-8.605L26.523 7.5h3.207A3.744 3.744 0 0 0 34.5 10c2.067 0 3.75-1.683 3.75-3.75S36.567 2.5 34.5 2.5a3.744 3.744 0 0 0-3.52 2.5h-3.208a2.488 2.488 0 0 0-2.236 1.383l-2.009 4.016C22.645 10.144 21.715 10 20.75 10s-1.895.144-2.778.4l-2.008-4.017A2.488 2.488 0 0 0 13.728 5h-3.208A3.744 3.744 0 0 0 7 2.5C4.933 2.5 3.25 4.183 3.25 6.25S4.933 10 7 10a3.744 3.744 0 0 0 3.52-2.5h3.208l1.947 3.895C12.73 13.135 10.75 16.332 10.75 20s1.98 6.865 4.925 8.605L13.227 32.5h-3.207A3.744 3.744 0 0 0 7 30c-2.067 0-3.75 1.683-3.75 3.75S4.933 37.5 7 37.5a3.744 3.744 0 0 0 3.52-2.5h3.208a2.488 2.488 0 0 0 2.236-1.383l2.009-4.016c.882.255 1.812.399 2.777.399s1.895-.144 2.778-.4l2.008 4.017a2.488 2.488 0 0 0 2.236 1.383h3.208a3.744 3.744 0 0 0 3.52 2.5c2.067 0 3.75-1.683 3.75-3.75S36.567 30 34.5 30z" stroke="url(#paint1_linear)" stroke-width="2"/>
  <path d="M25 17.5L20 22.5l-3-3 1.444-1.444 1.56 1.622z" fill="url(#paint2_linear)"/>
  <defs>
    <linearGradient id="paint0_linear" x1="3.25" y1="2.5" x2="38.25" y2="37.5" gradientUnits="userSpaceOnUse">
      <stop offset="0.259336" stop-color="#FFDB6E"/>
      <stop offset="1" stop-color="#FFBC5E"/>
    </linearGradient>
    <linearGradient id="paint1_linear" x1="3.25" y1="2.5" x2="38.25" y2="37.5" gradientUnits="userSpaceOnUse">
      <stop offset="0.259336" stop-color="#FFDB6E"/>
      <stop offset="1" stop-color="#FFBC5E"/>
    </linearGradient>
    <linearGradient id="paint2_linear" x1="17" y1="17.5" x2="25" y2="22.5" gradientUnits="userSpaceOnUse">
      <stop offset="0.259336" stop-color="#FFDB6E"/>
      <stop offset="1" stop-color="#FFBC5E"/>
    </linearGradient>
  </defs>
</svg>
